<?xml version="1.0" encoding="UTF-8" standalone="no"?>
<!-- Created with Inkscape (http://www.inkscape.org/) -->

<svg
   xmlns:dc="http://purl.org/dc/elements/1.1/"
   xmlns:cc="http://creativecommons.org/ns#"
   xmlns:rdf="http://www.w3.org/1999/02/22-rdf-syntax-ns#"
   xmlns:svg="http://www.w3.org/2000/svg"
   xmlns="http://www.w3.org/2000/svg"
   xmlns:sodipodi="http://sodipodi.sourceforge.net/DTD/sodipodi-0.dtd"
   xmlns:inkscape="http://www.inkscape.org/namespaces/inkscape"
   width="125.97578mm"
   height="73mm"
   viewBox="0 0 125.97578 73"
   version="1.1"
   id="svg8"
   inkscape:version="0.92.5 (2060ec1f9f, 2020-04-08)"
   sodipodi:docname="length-by-segment.svg">
  <defs
     id="defs2">
    <marker
       inkscape:isstock="true"
       style="overflow:visible"
       id="marker7987"
       refX="0"
       refY="0"
       orient="auto"
       inkscape:stockid="DotM">
      <path
         inkscape:connector-curvature="0"
         transform="matrix(0.4,0,0,0.4,2.96,0.4)"
         style="fill:#000000;fill-opacity:1;fill-rule:evenodd;stroke:#000000;stroke-width:1.00000003pt;stroke-opacity:1"
         d="m -2.5,-1 c 0,2.76 -2.24,5 -5,5 -2.76,0 -5,-2.24 -5,-5 0,-2.76 2.24,-5 5,-5 2.76,0 5,2.24 5,5 z"
         id="path7985" />
    </marker>
    <marker
       inkscape:isstock="true"
       style="overflow:visible"
       id="marker7959"
       refX="0"
       refY="0"
       orient="auto"
       inkscape:stockid="DotM">
      <path
         inkscape:connector-curvature="0"
         transform="matrix(0.4,0,0,0.4,2.96,0.4)"
         style="fill:#000000;fill-opacity:1;fill-rule:evenodd;stroke:#000000;stroke-width:1.00000003pt;stroke-opacity:1"
         d="m -2.5,-1 c 0,2.76 -2.24,5 -5,5 -2.76,0 -5,-2.24 -5,-5 0,-2.76 2.24,-5 5,-5 2.76,0 5,2.24 5,5 z"
         id="path7957" />
    </marker>
    <marker
       inkscape:isstock="true"
       style="overflow:visible"
       id="marker7937"
       refX="0"
       refY="0"
       orient="auto"
       inkscape:stockid="DotM">
      <path
         inkscape:connector-curvature="0"
         transform="matrix(0.4,0,0,0.4,2.96,0.4)"
         style="fill:#000000;fill-opacity:1;fill-rule:evenodd;stroke:#000000;stroke-width:1.00000003pt;stroke-opacity:1"
         d="m -2.5,-1 c 0,2.76 -2.24,5 -5,5 -2.76,0 -5,-2.24 -5,-5 0,-2.76 2.24,-5 5,-5 2.76,0 5,2.24 5,5 z"
         id="path7935" />
    </marker>
    <marker
       inkscape:stockid="DotM"
       orient="auto"
       refY="0"
       refX="0"
       id="DotM"
       style="overflow:visible"
       inkscape:isstock="true"
       inkscape:collect="always">
      <path
         id="path895"
         d="m -2.5,-1 c 0,2.76 -2.24,5 -5,5 -2.76,0 -5,-2.24 -5,-5 0,-2.76 2.24,-5 5,-5 2.76,0 5,2.24 5,5 z"
         style="fill:#000000;fill-opacity:1;fill-rule:evenodd;stroke:#000000;stroke-width:1.00000003pt;stroke-opacity:1"
         transform="matrix(0.4,0,0,0.4,2.96,0.4)"
         inkscape:connector-curvature="0" />
    </marker>
  </defs>
  <sodipodi:namedview
     id="base"
     pagecolor="#ffffff"
     bordercolor="#666666"
     borderopacity="1.0"
     inkscape:pageopacity="0.0"
     inkscape:pageshadow="2"
     inkscape:zoom="1.979899"
     inkscape:cx="214.64294"
     inkscape:cy="131.87836"
     inkscape:document-units="mm"
     inkscape:current-layer="layer1"
     showgrid="false"
     fit-margin-top="5"
     fit-margin-left="5"
     fit-margin-right="5"
     fit-margin-bottom="5"
     inkscape:window-width="1920"
     inkscape:window-height="1016"
     inkscape:window-x="0"
     inkscape:window-y="27"
     inkscape:window-maximized="1" />
  <metadata
     id="metadata5">
    <rdf:RDF>
      <cc:Work
         rdf:about="">
        <dc:format>image/svg+xml</dc:format>
        <dc:type
           rdf:resource="http://purl.org/dc/dcmitype/StillImage" />
        <dc:title></dc:title>
      </cc:Work>
    </rdf:RDF>
  </metadata>
  <g
     inkscape:label="Layer 1"
     inkscape:groupmode="layer"
     id="layer1"
     transform="translate(-35.36656,-118.31434)">
    <path
       style="opacity:1;vector-effect:none;fill:none;fill-opacity:1;stroke:#000000;stroke-width:0.52899998;stroke-linecap:butt;stroke-linejoin:miter;stroke-miterlimit:4;stroke-dasharray:none;stroke-dashoffset:0;stroke-opacity:1;marker-start:url(#DotM);marker-mid:url(#DotM);marker-end:url(#DotM)"
       d="m 41.577382,180.9613 12.473212,-16.81994 28.91518,-10.77232 16.063989,1.13393 10.583337,13.04018 -15.686015,17.57589 -20.410715,-10.58332 0.755952,-32.88394 32.694938,-12.28423 30.80507,0.37799 17.3869,17.3869"
       id="path817"
       inkscape:connector-curvature="0"
       sodipodi:nodetypes="ccccccccccc" />
    <g
       aria-label="{"
       style="font-style:normal;font-variant:normal;font-weight:normal;font-stretch:normal;font-size:4.23333311px;line-height:1.10000002;font-family:'DejaVu Sans';-inkscape-font-specification:'DejaVu Sans';text-align:center;letter-spacing:0px;word-spacing:0px;text-anchor:middle;fill:#000000;fill-opacity:1;stroke:none;stroke-width:0.26458332"
       id="text7910"
       transform="matrix(0,2.040276,-2.040276,0,410.22673,-52.161813)">
      <path
         d="m 93.554773,165.0662 0.104501,0.2787 -0.119994,0.045 c -0.321289,0.12047 -0.554685,0.15352 -0.700158,0.0991 -0.144181,-0.0548 -0.269736,-0.22484 -0.376656,-0.51001 l -2.540847,-6.77672 c -0.07306,-0.19484 -0.158442,-0.31662 -0.256186,-0.36533 -0.09771,-0.0487 -0.238228,-0.0387 -0.42145,0.0299 l -0.118065,0.0443 -0.103773,-0.27678 0.118065,-0.0443 c 0.184517,-0.0692 0.297173,-0.15339 0.337998,-0.25256 0.04161,-0.10093 0.02638,-0.24757 -0.0457,-0.43983 l -2.541574,-6.77865 c -0.106916,-0.28516 -0.123822,-0.49517 -0.05078,-0.63 0.07388,-0.13659 0.342429,-0.62028 0.592755,-0.3856 l 0.119993,-0.045 0.103773,0.27678 -0.131612,0.0493 c -0.181932,0.0682 -0.290006,0.1411 -0.324173,0.21873 -0.03425,0.0775 -0.01722,0.20732 0.05101,0.38928 l 2.547382,6.79414 c 0.07596,0.20258 0.101425,0.36081 0.07641,0.47468 -0.02372,0.11333 -0.100482,0.21281 -0.230339,0.29829 0.156295,-0.0189 0.280651,0.006 0.373053,0.0764 0.09239,0.0697 0.17634,0.20541 0.251811,0.4067 l 2.547381,6.79415 c 0.06822,0.18194 0.140684,0.2909 0.217495,0.32685 0.0768,0.0359 0.206112,0.0197 0.388035,-0.0484 z"
         style="stroke-width:0.26458332"
         id="path7912"
         inkscape:connector-curvature="0"
         sodipodi:nodetypes="ccscsscsccscsscsccscsscccsscsc" />
    </g>
    <text
       xml:space="preserve"
       style="font-style:normal;font-variant:normal;font-weight:normal;font-stretch:normal;font-size:4.23333311px;line-height:1.10000002;font-family:'DejaVu Sans';-inkscape-font-specification:'DejaVu Sans';text-align:center;letter-spacing:0px;word-spacing:0px;text-anchor:middle;fill:#000000;fill-opacity:1;stroke:none;stroke-width:0.26458332"
       x="70.77977"
       y="126.50148"
       id="text9497"><tspan
         sodipodi:role="line"
         id="tspan9495"
         x="70.77977"
         y="126.50148"
         style="stroke-width:0.26458332">Δr = √Δx² + Δy²</tspan></text>
  </g>
</svg>
